. 
 
http://www.torrenting.com          :     Once & For all ;)


               www . Torrenting . Com 

(((((((((((((= Enjoy No RAR releases =))))))))))))))))))))


...................................NFO:....................................

.[IMG]http://img94.imageshack.us/img94/5562/dreamhousebluray.jpg[/IMG]


[color=blue][size=4][b]Dream.House.2011.R5.BDRip.XVID.AC3.5.1.HQ.Hive-CM8[/b][/size][/color]


[b]Thx Hive

CM8 Doing It Right The First Time :D

Sources:

Video: Russian Bluray
Dream House (2011) Blu-ray 1080p AVC DTS-HD 5.1
Audio: DTRG Line from the TS  
thx
+AC3 Effects from the Russian Bluray


Encode:

well that was loads of work, but its definately worth it.
i took the line from the ts since it was clear and loud, cleaned it through and synced it back to bluray.
Yes its lipsync from 0-end. 
there wont be any oos spots. 
no words were skipped everything is there in my usual hq.
thats the version to get, thats for sure.
Entered the synced line back into the russian 5.1 track(from DTS) and made a retail-like audiotrack.

got very very nice
enjoy

btw: Russian Bluray was NTSC not PAL like usual so runtime is now 3mins longer

Video: 720x304 @bitrate 1900 2pass
Audio: English AC3 5.1 @448
Sample: yes included[/b]


[url]http://www.imdb.com/title/tt1462041/[/url]


General
Complete name                  : Dream.House.2011.R5.BDRip.XVID.AC3.5.1.HQ.Hive-CM8.avi
Format                         : AVI
Format/Info                    : Audio Video Interleave
File size                      : 1.51 GiB
Duration                       : 1h 30mn
Overall bit rate               : 2 374 Kbps
Writing application            : Nandub v1.0rc2
Writing library                : Nandub build 1853/release

Video
ID                             : 0
Format                         : MPEG-4 Visual
Format profile                 : Advanced Simple@L5
Format settings, BVOP          : 1
Format settings, QPel          : Yes
Format settings, GMC           : No warppoints
Format settings, Matrix        : Default (H.263)
Muxing mode                    : Packed bitstream
Codec ID                       : XVID
Codec ID/Hint                  : XviD
Duration                       : 1h 30mn
Bit rate                       : 1 917 Kbps
Width                          : 720 pixels
Height                         : 304 pixels
Display aspect ratio           : 2.40:1
Frame rate                     : 23.976 fps
Color space                    : YUV
Chroma subsampling             : 4:2:0
Bit depth                      : 8 bits
Scan type                      : Progressive
Compression mode               : Lossy
Bits/(Pixel*Frame)             : 0.365
Stream size                    : 1.22 GiB (81%)
Writing library                : XviD 1.2.1 (UTC 2008-12-04)

Audio
ID                             : 1
Format                         : AC-3
Format/Info                    : Audio Coding 3
Mode extension                 : CM (complete main)
Codec ID                       : 2000
Duration                       : 1h 30mn
Bit rate mode                  : Constant
Bit rate                       : 448 Kbps
Channel(s)                     : 6 channels
Channel positions              : Front: L C R, Side: L R, LFE
Sampling rate                  : 48.0 KHz
Bit depth                      : 16 bits
Compression mode               : Lossy
Stream size                    : 291 MiB (19%)
Alignment                      : Split accross interleaves
Interleave, duration           : 42 ms (1.00 video frame)
Interleave, preload duration   : 500 ms


Plot:

Soon after moving into their seemingly idyllic new home, a family learns of a brutal 
crime committed against former residents of the dwelling. 

Cast:

Daniel Craig	... 	Will Atenton
Naomi Watts	... 	Ann Patterson
Rachel Weisz	... 	Libby
Elias Koteas	... 	Boyce
Marton Csokas	... 	Jack Patterson


[img]http://img820.imageshack.us/img820/954/94905717.png[/img]
[img]http://img36.imageshack.us/img36/9485/ddrrdr.png[/img]
[img]http://img85.imageshack.us/img85/4218/ddrrdrddrr.png[/img]
[img]http://img521.imageshack.us/img521/7535/ddrrdrddrrddrr.png[/img]
[img]http://img845.imageshack.us/img845/3189/ddrrdrdr.png[/img]
[img]http://img59.imageshack.us/img59/2238/ddrrdrdrddrr.png[/img]
[img]http://img38.imageshack.us/img38/904/ddrrdrdrddrrddrr.png[/img]




Greetz

ViSiON,SPK,SiC,SANTi,3LT0N,YanKeeS,MAGNET,THC,T0XiC,LKRG,Feel-Free,FLAWL3SS,
WBZ,BHRG,NOVA,D2U,Rapeseed,SAFC,goldadvance,KaN1vE,Unevano,Pinnz,Wayne
Mr Hive,and most P2P groups
Great Work Guys :D

LOOKING FOR ANYTHING YOU WANT TO LOOK AND SOUND BETTER

CM8@hushmail.com